<svg id="visual" viewBox="0 0 900 450" width="900" height="450" xmlns="http://www.w3.org/2000/svg" xmlns:xlink="http://www.w3.org/1999/xlink" version="1.1"><rect x="0" y="0" width="900" height="450" fill="#304674"></rect><path d="M0 253L21.5 255.7C43 258.3 86 263.7 128.8 255.3C171.7 247 214.3 225 257.2 227C300 229 343 255 385.8 255.5C428.7 256 471.3 231 514.2 224.8C557 218.7 600 231.3 642.8 230.5C685.7 229.7 728.3 215.3 771.2 214.8C814 214.3 857 227.7 878.5 234.3L900 241L900 451L878.5 451C857 451 814 451 771.2 451C728.3 451 685.7 451 642.8 451C600 451 557 451 514.2 451C471.3 451 428.7 451 385.8 451C343 451 300 451 257.2 451C214.3 451 171.7 451 128.8 451C86 451 43 451 21.5 451L0 451Z" fill="#d76a63"></path><path d="M0 282L21.5 274.3C43 266.7 86 251.3 128.8 255.2C171.7 259 214.3 282 257.2 285.5C300 289 343 273 385.8 269.7C428.7 266.3 471.3 275.7 514.2 286.7C557 297.7 600 310.3 642.8 304.5C685.7 298.7 728.3 274.3 771.2 268.5C814 262.7 857 275.3 878.5 281.7L900 288L900 451L878.5 451C857 451 814 451 771.2 451C728.3 451 685.7 451 642.8 451C600 451 557 451 514.2 451C471.3 451 428.7 451 385.8 451C343 451 300 451 257.2 451C214.3 451 171.7 451 128.8 451C86 451 43 451 21.5 451L0 451Z" fill="#e27e67"></path><path d="M0 326L21.5 325.3C43 324.7 86 323.3 128.8 318C171.7 312.7 214.3 303.3 257.2 300C300 296.7 343 299.3 385.8 302.3C428.7 305.3 471.3 308.7 514.2 316.7C557 324.7 600 337.3 642.8 343.2C685.7 349 728.3 348 771.2 348.3C814 348.7 857 350.3 878.5 351.2L900 352L900 451L878.5 451C857 451 814 451 771.2 451C728.3 451 685.7 451 642.8 451C600 451 557 451 514.2 451C471.3 451 428.7 451 385.8 451C343 451 300 451 257.2 451C214.3 451 171.7 451 128.8 451C86 451 43 451 21.5 451L0 451Z" fill="#ec926c"></path><path d="M0 345L21.5 341.8C43 338.7 86 332.3 128.8 333.8C171.7 335.3 214.3 344.7 257.2 348C300 351.3 343 348.7 385.8 353C428.7 357.3 471.3 368.7 514.2 369.7C557 370.7 600 361.3 642.8 354.7C685.7 348 728.3 344 771.2 344.7C814 345.3 857 350.7 878.5 353.3L900 356L900 451L878.5 451C857 451 814 451 771.2 451C728.3 451 685.7 451 642.8 451C600 451 557 451 514.2 451C471.3 451 428.7 451 385.8 451C343 451 300 451 257.2 451C214.3 451 171.7 451 128.8 451C86 451 43 451 21.5 451L0 451Z" fill="#f5a673"></path><path d="M0 386L21.5 391.2C43 396.3 86 406.7 128.8 410.7C171.7 414.7 214.3 412.3 257.2 406.2C300 400 343 390 385.8 390C428.7 390 471.3 400 514.2 404.3C557 408.7 600 407.3 642.8 401.3C685.7 395.3 728.3 384.7 771.2 385.2C814 385.7 857 397.3 878.5 403.2L900 409L900 451L878.5 451C857 451 814 451 771.2 451C728.3 451 685.7 451 642.8 451C600 451 557 451 514.2 451C471.3 451 428.7 451 385.8 451C343 451 300 451 257.2 451C214.3 451 171.7 451 128.8 451C86 451 43 451 21.5 451L0 451Z" fill="#fcba7d"></path></svg>