<svg id="visual" viewBox="0 0 900 600" width="900" height="600" xmlns="http://www.w3.org/2000/svg" xmlns:xlink="http://www.w3.org/1999/xlink" version="1.1"><path d="M0 85L30 92C60 99 120 113 180 122C240 131 300 135 360 136C420 137 480 135 540 134C600 133 660 133 720 130C780 127 840 121 870 118L900 115L900 0L870 0C840 0 780 0 720 0C660 0 600 0 540 0C480 0 420 0 360 0C300 0 240 0 180 0C120 0 60 0 30 0L0 0Z" fill="#b1c7db"></path><path d="M0 301L30 298C60 295 120 289 180 284C240 279 300 275 360 279C420 283 480 295 540 306C600 317 660 327 720 322C780 317 840 297 870 287L900 277L900 113L870 116C840 119 780 125 720 128C660 131 600 131 540 132C480 133 420 135 360 134C300 133 240 129 180 120C120 111 60 97 30 90L0 83Z" fill="#c9d8e6"></path><path d="M0 373L30 375C60 377 120 381 180 377C240 373 300 361 360 362C420 363 480 377 540 387C600 397 660 403 720 398C780 393 840 377 870 369L900 361L900 275L870 285C840 295 780 315 720 320C660 325 600 315 540 304C480 293 420 281 360 277C300 273 240 277 180 282C120 287 60 293 30 296L0 299Z" fill="#d9e1ed"></path><path d="M0 523L30 525C60 527 120 531 180 536C240 541 300 547 360 548C420 549 480 545 540 544C600 543 660 545 720 547C780 549 840 551 870 552L900 553L900 359L870 367C840 375 780 391 720 396C660 401 600 395 540 385C480 375 420 361 360 360C300 359 240 371 180 375C120 379 60 375 30 373L0 371Z" fill="#c9d8e6"></path><path d="M0 601L30 601C60 601 120 601 180 601C240 601 300 601 360 601C420 601 480 601 540 601C600 601 660 601 720 601C780 601 840 601 870 601L900 601L900 551L870 550C840 549 780 547 720 545C660 543 600 541 540 542C480 543 420 547 360 546C300 545 240 539 180 534C120 529 60 525 30 523L0 521Z" fill="#b1c7db"></path></svg>