<svg id="visual" viewBox="0 0 960 540" width="960" height="540" xmlns="http://www.w3.org/2000/svg" xmlns:xlink="http://www.w3.org/1999/xlink" version="1.1"><rect x="0" y="0" width="960" height="540" fill="#A7C7E7"></rect><path d="M0 379L22.8 368.7C45.7 358.3 91.3 337.7 137 329.5C182.7 321.3 228.3 325.7 274 337.5C319.7 349.3 365.3 368.7 411.2 372.2C457 375.7 503 363.3 548.8 349.5C594.7 335.7 640.3 320.3 686 308.7C731.7 297 777.3 289 823 283.8C868.7 278.7 914.3 276.3 937.2 275.2L960 274L960 541L937.2 541C914.3 541 868.7 541 823 541C777.3 541 731.7 541 686 541C640.3 541 594.7 541 548.8 541C503 541 457 541 411.2 541C365.3 541 319.7 541 274 541C228.3 541 182.7 541 137 541C91.3 541 45.7 541 22.8 541L0 541Z" fill="#F5EFE6" stroke-linecap="round" stroke-linejoin="miter"></path></svg>