<svg id="visual" viewBox="0 0 960 540" width="960" height="540" xmlns="http://www.w3.org/2000/svg" xmlns:xlink="http://www.w3.org/1999/xlink" version="1.1"><rect x="0" y="0" width="960" height="540" fill="#F5EFE6"></rect><path d="M0 527L17.8 520C35.7 513 71.3 499 106.8 487.5C142.3 476 177.7 467 213.2 470.7C248.7 474.3 284.3 490.7 320 501.3C355.7 512 391.3 517 426.8 521.3C462.3 525.7 497.7 529.3 533.2 519C568.7 508.7 604.3 484.3 640 481.7C675.7 479 711.3 498 746.8 508.3C782.3 518.7 817.7 520.3 853.2 511.8C888.7 503.3 924.3 484.7 942.2 475.3L960 466L960 541L942.2 541C924.3 541 888.7 541 853.2 541C817.7 541 782.3 541 746.8 541C711.3 541 675.7 541 640 541C604.3 541 568.7 541 533.2 541C497.7 541 462.3 541 426.8 541C391.3 541 355.7 541 320 541C284.3 541 248.7 541 213.2 541C177.7 541 142.3 541 106.8 541C71.3 541 35.7 541 17.8 541L0 541Z" fill="#c4d5e4" stroke-linecap="round" stroke-linejoin="miter"></path></svg>