<svg id="visual" viewBox="0 0 960 540" width="960" height="540" xmlns="http://www.w3.org/2000/svg" xmlns:xlink="http://www.w3.org/1999/xlink" version="1.1"><rect x="0" y="0" width="960" height="540" fill="#C4D5E4"></rect><path d="M0 491L17.8 497.2C35.7 503.3 71.3 515.7 106.8 513.3C142.3 511 177.7 494 213.2 480C248.7 466 284.3 455 320 451.2C355.7 447.3 391.3 450.7 426.8 464C462.3 477.3 497.7 500.7 533.2 500.2C568.7 499.7 604.3 475.3 640 473.7C675.7 472 711.3 493 746.8 495.5C782.3 498 817.7 482 853.2 470.8C888.7 459.7 924.3 453.3 942.2 450.2L960 447L960 541L942.2 541C924.3 541 888.7 541 853.2 541C817.7 541 782.3 541 746.8 541C711.3 541 675.7 541 640 541C604.3 541 568.7 541 533.2 541C497.7 541 462.3 541 426.8 541C391.3 541 355.7 541 320 541C284.3 541 248.7 541 213.2 541C177.7 541 142.3 541 106.8 541C71.3 541 35.7 541 17.8 541L0 541Z" fill="#C4E4E3" stroke-linecap="round" stroke-linejoin="miter"></path></svg>